<svg width="41" height="41" viewBox="0 0 41 41" fill="none" xmlns="http://www.w3.org/2000/svg">
<g clip-path="url(#clip0_787_181)">
<path d="M29.7363 28.7881L31.9516 26.5729L35.0946 29.7158L32.8793 31.9311L29.7363 28.7881Z" fill="#E6E2E6"/>
<path d="M29.7363 28.7881L31.9516 26.5729L35.0946 29.7158L32.8793 31.9311L29.7363 28.7881Z" fill="#ECDAEC"/>
<path d="M29.7363 28.7881L30.7909 27.7336L33.9338 30.8765L32.8793 31.931L29.7363 28.7881Z" fill="#2196F2"/>
<path d="M1.125 1.93909C1.125 1.2919 1.64969 0.767212 2.29688 0.767212H22.0191L29.2798 8.02792V38.3453C29.2798 38.9925 28.7552 39.5172 28.108 39.5172H2.29688C1.64969 39.5172 1.125 38.9925 1.125 38.3453V1.93909Z" fill="white"/>
<path d="M28.108 38.111H2.29688C1.64969 38.111 1.125 37.5863 1.125 36.9391V38.3453C1.125 38.9925 1.64969 39.5172 2.29688 39.5172H28.108C28.7552 39.5172 29.2798 38.9925 29.2798 38.3453V36.9391C29.2798 37.5863 28.7552 38.111 28.108 38.111Z" fill="#ECDAEC"/>
<path d="M23.1909 8.02792H29.2797L22.019 0.767212V6.85604C22.019 7.50323 22.5437 8.02792 23.1909 8.02792Z" fill="#2196F2"/>
<path d="M23.1909 8.02792H29.2797L22.019 0.767212V6.85604C22.019 7.50323 22.5437 8.02792 23.1909 8.02792Z" fill="#2196F2"/>
<path d="M25.0261 31.5814C30.3972 31.5814 34.7514 27.2272 34.7514 21.8561C34.7514 16.4849 30.3972 12.1307 25.0261 12.1307C19.655 12.1307 15.3008 16.4849 15.3008 21.8561C15.3008 27.2272 19.655 31.5814 25.0261 31.5814Z" fill="#2196F2"/>
<path d="M31.9034 27.3267C28.1054 31.1247 21.9477 31.1247 18.1497 27.3267C16.4297 25.6067 15.4886 23.4026 15.3266 21.153C15.1308 23.8707 16.0718 26.655 18.1497 28.7329C21.9477 32.5309 28.1054 32.5309 31.9034 28.7329C33.9813 26.655 34.9223 23.8707 34.7265 21.153C34.5644 23.4026 33.6234 25.6067 31.9034 27.3267Z" fill="#00B5F1"/>
<path d="M25.0264 28.8976C28.9154 28.8976 32.068 25.745 32.068 21.856C32.068 17.9671 28.9154 14.8145 25.0264 14.8145C21.1375 14.8145 17.9849 17.9671 17.9849 21.856C17.9849 25.745 21.1375 28.8976 25.0264 28.8976Z" fill="#FFE27A"/>
<path d="M30.0054 25.4289C27.2554 28.1788 22.797 28.1788 20.0472 25.4289C18.8513 24.233 18.1761 22.714 18.0204 21.1529C17.8179 23.1815 18.4932 25.2811 20.0472 26.8352C22.797 29.5851 27.2555 29.5851 30.0054 26.8352C31.5594 25.2811 32.2346 23.1815 32.0322 21.1529C31.8765 22.714 31.2012 24.233 30.0054 25.4289Z" fill="#F9CF58"/>
<path d="M24.3963 24.753C24.0869 24.753 23.7773 24.6371 23.5381 24.4045L21.9222 22.8331C21.4347 22.3591 21.4238 21.5796 21.8978 21.092C22.3719 20.6045 23.1514 20.5937 23.6389 21.0677L24.3733 21.7818L26.5796 19.5195C27.0543 19.0327 27.8339 19.023 28.3207 19.4976C28.8075 19.9723 28.8173 20.752 28.3426 21.2387L25.2778 24.3813C25.0367 24.6287 24.7167 24.753 24.3963 24.753Z" fill="#00E0FF"/>
<path d="M28.3428 19.8325L25.278 22.9751C25.0368 23.2225 24.7168 23.3468 24.3965 23.3468C24.0871 23.3468 23.7775 23.2309 23.5383 22.9982L21.9224 21.4269C21.8652 21.3713 21.8151 21.3111 21.7711 21.2481C21.4323 21.7339 21.4839 22.4068 21.9224 22.8332L23.5383 24.4045C23.7776 24.6372 24.0871 24.753 24.3965 24.753C24.7168 24.753 25.0368 24.6288 25.278 24.3814L28.3428 21.2388C28.7622 20.8087 28.8028 20.1504 28.471 19.6754C28.4328 19.7301 28.3909 19.7832 28.3428 19.8325Z" fill="#2196F2"/>
<path d="M35.5386 29.2786L32.449 32.3682L36.1456 36.0649C36.9988 36.918 38.382 36.918 39.2352 36.0649C40.0883 35.2117 40.0883 33.8285 39.2352 32.9753L35.5386 29.2786Z" fill="#FF4755"/>
<path d="M37.1991 35.009L33.5037 31.3135L32.449 32.3682L36.1456 36.0649C36.9987 36.918 38.382 36.918 39.2351 36.0649C39.421 35.879 39.5663 35.668 39.6712 35.4428C38.8618 35.8221 37.8677 35.6776 37.1991 35.009Z" fill="#FC2B3A"/>
<path d="M8.41988 15.5643H5.85652C5.45629 15.5643 5.13184 15.2399 5.13184 14.8396V12.2762C5.13184 11.876 5.45629 11.5515 5.85652 11.5515H8.41996C8.8202 11.5515 9.14465 11.876 9.14465 12.2762V14.8396C9.14457 15.2399 8.82012 15.5643 8.41988 15.5643Z" fill="#00E0FF"/>
<path d="M8.41988 23.7801H5.85652C5.45629 23.7801 5.13184 23.4556 5.13184 23.0554V20.492C5.13184 20.0917 5.45629 19.7673 5.85652 19.7673H8.41996C8.8202 19.7673 9.14465 20.0917 9.14465 20.492V23.0554C9.14457 23.4556 8.82012 23.7801 8.41988 23.7801Z" fill="#00E0FF"/>
<path d="M8.41988 32.1627H5.85652C5.45629 32.1627 5.13184 31.8383 5.13184 31.438V28.8746C5.13184 28.4744 5.45629 28.1499 5.85652 28.1499H8.41996C8.8202 28.1499 9.14465 28.4744 9.14465 28.8746V31.438C9.14457 31.8383 8.82012 32.1627 8.41988 32.1627Z" fill="#00E0FF"/>
<path d="M8.41988 14.1581H5.85652C5.45629 14.1581 5.13184 13.8336 5.13184 13.4335V14.8397C5.13184 15.24 5.45629 15.5644 5.85652 15.5644H8.41996C8.8202 15.5644 9.14457 15.24 9.14457 14.8397V13.4335C9.14457 13.8336 8.82012 14.1581 8.41988 14.1581Z" fill="#2196F2"/>
<path d="M8.41988 22.3739H5.85652C5.45629 22.3739 5.13184 22.0494 5.13184 21.6492V23.0554C5.13184 23.4557 5.45629 23.7801 5.85652 23.7801H8.41996C8.8202 23.7801 9.14457 23.4557 9.14457 23.0554V21.6492C9.14457 22.0494 8.82012 22.3739 8.41988 22.3739Z" fill="#2196F2"/>
<path d="M8.41988 30.7564H5.85652C5.45629 30.7564 5.13184 30.432 5.13184 30.0317V31.438C5.13184 31.8382 5.45629 32.1627 5.85652 32.1627H8.41996C8.8202 32.1627 9.14457 31.8382 9.14457 31.438V30.0317C9.14457 30.432 8.82012 30.7564 8.41988 30.7564Z" fill="#2196F2"/>
<path d="M22.019 6.85602V8.26227C22.019 8.90946 22.5437 9.43414 23.1909 9.43414H29.2797V8.02789H23.1909C22.5437 8.02789 22.019 7.50321 22.019 6.85602Z" fill="#ECDAEC"/>
<path d="M24.407 25.3491C24.9021 25.3491 25.3651 25.1539 25.7108 24.7996L28.782 21.6508C29.483 20.9321 29.4684 19.7771 28.7496 19.0761C28.0308 18.3752 26.8755 18.3897 26.1746 19.1084L24.373 20.9554L24.0573 20.6486C23.3375 19.9489 22.1823 19.9649 21.4823 20.6846C20.7824 21.4044 20.7986 22.5594 21.5184 23.2593L23.1376 24.8337C23.4794 25.1661 23.9303 25.3491 24.407 25.3491ZM22.3243 21.5032C22.573 21.2475 22.9834 21.2421 23.2388 21.4905L23.9747 22.2061C24.2069 22.4319 24.5781 22.4268 24.8044 22.195L27.0153 19.9283C27.2644 19.6729 27.6746 19.668 27.9298 19.9168C28.1851 20.1657 28.1901 20.5759 27.9413 20.8311L24.8701 23.9798C24.6328 24.2336 24.2005 24.239 23.9563 23.992L22.3371 22.4176C22.0815 22.169 22.0757 21.7588 22.3243 21.5032Z" fill="#80D8F7"/>
<path d="M19.8685 25.7487C19.6732 25.4899 19.3051 25.4383 19.046 25.6336C18.7871 25.8289 18.7357 26.1971 18.931 26.4559C19.1448 26.7392 19.3814 27.011 19.6339 27.2635C21.0775 28.707 22.997 29.5019 25.0386 29.5019C27.0803 29.5019 28.9996 28.707 30.4433 27.2635C31.8871 25.82 32.6821 23.9008 32.6821 21.8595C32.6821 19.8181 31.887 17.8989 30.4433 16.4555C27.4631 13.4757 22.6141 13.4758 19.6339 16.4555C17.6021 18.487 16.8831 21.4505 17.7575 24.1896C17.8561 24.4985 18.1868 24.6688 18.4954 24.5703C18.8043 24.4717 18.9749 24.1414 18.8762 23.8325C18.136 21.5139 18.7445 19.0053 20.4643 17.2858C22.9865 14.7639 27.0907 14.7639 29.6129 17.2858C30.8348 18.5075 31.5078 20.1318 31.5078 21.8596C31.5078 23.5873 30.8348 25.2116 29.6129 26.4333C28.3911 27.655 26.7666 28.3278 25.0386 28.3278C23.3107 28.3278 21.6861 27.655 20.4643 26.4333C20.25 26.2189 20.0496 25.9887 19.8685 25.7487Z" fill="#80D8F7"/>
<path d="M39.6923 32.5853L35.988 28.8814C35.7586 28.6522 35.3869 28.6521 35.1575 28.8814L35.1348 28.9041L33.7093 27.4788C34.6676 26.0014 35.2385 24.2945 35.3509 22.513C35.3712 22.1894 35.1254 21.9106 34.8018 21.8901C34.4784 21.8704 34.1994 22.1156 34.1788 22.4391C34.0386 24.6632 33.0924 26.757 31.5146 28.3346C29.7315 30.1175 27.3898 31.01 25.0475 31.0123C25.0445 31.0122 25.0416 31.0118 25.0386 31.0118H24.992C22.6623 31.0001 20.3362 30.1079 18.5626 28.3346C16.8327 26.605 15.8801 24.3054 15.8801 21.8594C15.8801 19.4134 16.8327 17.1138 18.5626 15.3842C22.1334 11.8138 27.9437 11.8138 31.5146 15.3842C32.8446 16.7141 33.7223 18.3915 34.0528 20.2353C34.1101 20.5545 34.4154 20.7665 34.7344 20.7096C35.0536 20.6524 35.2659 20.3474 35.2087 20.0281C34.8356 17.9471 33.8454 16.0542 32.345 14.5539C31.6016 13.8106 30.7719 13.2049 29.888 12.7359V8.00417C29.8876 7.84963 29.8252 7.69838 29.7161 7.58901L22.4403 0.314165C22.3309 0.205259 22.1797 0.142603 22.025 0.142212H2.26156C1.29031 0.142212 0.500078 0.93229 0.500078 1.90346V6.83807C0.500078 7.16229 0.762891 7.42518 1.08727 7.42518C1.41156 7.42518 1.67445 7.16237 1.67445 6.83807V1.90346C1.67445 1.57971 1.93781 1.31635 2.26164 1.31635H21.438V6.83002C21.438 7.8012 22.2283 8.59127 23.1995 8.59127H28.7139V12.2042C27.5683 11.7701 26.3605 11.5471 25.1507 11.5341C25.1449 11.5333 25.1393 11.5321 25.1333 11.5321H12.0239C11.6996 11.5321 11.4367 11.795 11.4367 12.1192C11.4367 12.4435 11.6996 12.7064 12.0239 12.7064H20.2447C19.4071 13.1443 18.6176 13.7049 17.9026 14.388H12.0239C11.6996 14.388 11.4367 14.6509 11.4367 14.9751C11.4367 15.2993 11.6996 15.5622 12.0239 15.5622H16.8458C15.8873 16.8037 15.2323 18.2335 14.9188 19.7599H12.024C11.6997 19.7599 11.4368 20.0228 11.4368 20.347C11.4368 20.6712 11.6997 20.9341 12.024 20.9341H14.7473C14.7203 21.2401 14.706 21.5487 14.706 21.8596C14.706 22.1146 14.7153 22.3681 14.7335 22.6199H12.0241C11.6998 22.6199 11.4369 22.8828 11.4369 23.2071C11.4369 23.5313 11.6998 23.7942 12.0241 23.7942H14.8866C15.186 25.3833 15.8537 26.8724 16.8476 28.159H12.0241C11.6998 28.159 11.4369 28.4218 11.4369 28.7461C11.4369 29.0704 11.6998 29.3332 12.0241 29.3332H17.9049C18.6189 30.015 19.4072 30.5747 20.2433 31.0121H12.0238C11.6995 31.0121 11.4366 31.275 11.4366 31.5992C11.4366 31.9235 11.6995 32.1864 12.0238 32.1864H25.0386C26.2856 32.1862 27.5327 31.9622 28.7137 31.5148V38.3813C28.7137 38.7049 28.4504 38.9684 28.1266 38.9684H2.26156C1.93781 38.9684 1.67437 38.705 1.67437 38.3813V9.18674C1.67437 8.86252 1.41148 8.59963 1.08719 8.59963C0.762891 8.59963 0.5 8.86245 0.5 9.18674V38.3813C0.500078 39.3521 1.29031 40.1422 2.26156 40.1422H28.1266C29.0979 40.1422 29.8881 39.3521 29.8881 38.381V30.9828C30.1502 30.8437 30.4073 30.6924 30.659 30.5293L32.0842 31.9543C31.8376 32.1696 31.8244 32.5799 32.0615 32.8073L35.7659 36.5112C36.7992 37.5882 38.6589 37.5881 39.6922 36.5112C40.7694 35.4779 40.7693 33.6185 39.6923 32.5853ZM23.1995 7.41713C22.8757 7.41713 22.6123 7.15377 22.6123 6.83002V2.14667L27.8834 7.41713H23.1995ZM31.6168 29.8264C31.8673 29.6193 32.1106 29.3992 32.345 29.1649C32.578 28.9319 32.7984 28.6887 33.0066 28.4367L34.3044 29.7343L32.9145 31.1239L31.6168 29.8264ZM38.8619 35.6809C38.2656 36.3024 37.1926 36.3022 36.5962 35.6809L33.307 32.3921L35.5727 30.1267L38.8619 33.4155C39.4834 34.0118 39.4834 35.0846 38.8619 35.6809Z" fill="#80D8F7"/>
<path d="M5.8285 16.1425H8.39725C9.12146 16.1425 9.71068 15.5534 9.71068 14.8293V12.2609C9.71068 11.5368 9.12154 10.9477 8.39725 10.9477H5.8285C5.10436 10.9477 4.51514 11.5368 4.51514 12.2609V14.8293C4.51514 15.5534 5.10436 16.1425 5.8285 16.1425ZM5.68951 12.2609C5.68951 12.1843 5.75193 12.1219 5.8285 12.1219H8.39725C8.47396 12.1219 8.53631 12.1843 8.53631 12.2609V14.8293C8.53631 14.906 8.47389 14.9683 8.39725 14.9683H5.8285C5.75186 14.9683 5.68951 14.906 5.68951 14.8293V12.2609Z" fill="#80D8F7"/>
<path d="M4.51514 23.0611C4.51514 23.7852 5.10428 24.3743 5.8285 24.3743H8.39725C9.12146 24.3743 9.71068 23.7852 9.71068 23.0611V20.4927C9.71068 19.7686 9.12154 19.1796 8.39725 19.1796H5.8285C5.10436 19.1796 4.51514 19.7686 4.51514 20.4927V23.0611ZM5.68951 20.4927C5.68951 20.416 5.75193 20.3537 5.8285 20.3537H8.39725C8.47396 20.3537 8.53631 20.416 8.53631 20.4927V23.0611C8.53631 23.1378 8.47389 23.2001 8.39725 23.2001H5.8285C5.75186 23.2001 5.68951 23.1378 5.68951 23.0611V20.4927Z" fill="#80D8F7"/>
<path d="M4.51514 31.4602C4.51514 32.1843 5.10428 32.7733 5.8285 32.7733H8.39725C9.12146 32.7733 9.71068 32.1843 9.71068 31.4602V28.8918C9.71068 28.1676 9.12154 27.5786 8.39725 27.5786H5.8285C5.10436 27.5786 4.51514 28.1676 4.51514 28.8918V31.4602ZM5.68951 28.8918C5.68951 28.8151 5.75193 28.7528 5.8285 28.7528H8.39725C8.47396 28.7528 8.53631 28.8151 8.53631 28.8918V31.4602C8.53631 31.5368 8.47389 31.5992 8.39725 31.5992H5.8285C5.75186 31.5992 5.68951 31.5368 5.68951 31.4602V28.8918Z" fill="#80D8F7"/>
</g>
<defs>
<clipPath id="clip0_787_181">
<rect width="40" height="40" fill="white" transform="translate(0.5 0.142212)"/>
</clipPath>
</defs>
</svg>
